<svg width="1000" height="680" viewBox="0 0 1000 680" xmlns="http://www.w3.org/2000/svg">  <defs>
    <marker id="arrow" markerWidth="10" markerHeight="8" refX="9" refY="4" orient="auto"><path d="M0,0 L10,4 L0,8 Z" fill="#176b49"/></marker>
    <marker id="ret" markerWidth="10" markerHeight="8" refX="1" refY="4" orient="auto"><path d="M10,0 L0,4 L10,8 Z" fill="#66736c"/></marker>
    <style>
      text{font-family:Arial,sans-serif}.bg{fill:#f4f6f8}.card{fill:#fff;stroke:#d9e1dd;stroke-width:1.5}.title{font-size:30px;font-weight:800;fill:#17201b}.sub{font-size:15px;fill:#66736c}.name{font-size:15px;font-weight:800;fill:#17201b}.type{font-size:12px;font-weight:700;fill:#66736c}.life{stroke:#aebbb5;stroke-width:2;stroke-dasharray:8 8}.msg{stroke:#176b49;stroke-width:2.4;marker-end:url(#arrow)}.return{stroke:#66736c;stroke-width:2.1;stroke-dasharray:7 5;marker-start:url(#ret)}.label{font-size:14px;font-weight:700;fill:#17201b}.note{font-size:12px;font-weight:600;fill:#66736c}.act{fill:#e7f4ed;stroke:#176b49;stroke-width:1.3}.icon{fill:#fff;stroke:#176b49;stroke-width:2.4}.icon2{fill:#fff;stroke:#0f4d34;stroke-width:2.4}.db{fill:#fff8e6;stroke:#0f4d34;stroke-width:2.4}.head{fill:#176b49}.head2{fill:#0f4d34}.white{fill:#fff}.step{fill:#176b49}.stepText{font-size:11px;font-weight:800;fill:#fff}
    </style>
  </defs><rect class="bg" width="1000" height="680"/><rect class="card" x="35" y="30" width="930" height="610" rx="18"/><text class="title" x="70" y="78">Logout Sequence</text><text class="sub" x="70" y="104">System clears the JWT cookie and returns user to login page.</text><g transform="translate(80 145)"><circle class="icon" cx="55" cy="18" r="16"/><line class="icon" x1="55" y1="34" x2="55" y2="78"/><line class="icon" x1="25" y1="50" x2="85" y2="50"/><line class="icon" x1="55" y1="78" x2="30" y2="112"/><line class="icon" x1="55" y1="78" x2="80" y2="112"/><text class="name" x="55" y="145" text-anchor="middle">User</text><text class="type" x="55" y="164" text-anchor="middle">&lt;&lt;actor&gt;&gt;</text></g><g transform="translate(340 145)"><rect class="icon" x="0" y="10" width="120" height="82" rx="8"/><line class="icon" x1="0" y1="32" x2="120" y2="32"/><circle class="head" cx="18" cy="21" r="4"/><circle class="head" cx="32" cy="21" r="4"/><circle class="head" cx="46" cy="21" r="4"/><text class="name" x="60" y="125" text-anchor="middle">Browser</text><text class="type" x="60" y="144" text-anchor="middle">&lt;&lt;boundary&gt;&gt;</text></g><g transform="translate(620 145)"><circle class="icon2" cx="60" cy="52" r="43"/><path class="icon2" d="M38 52 h44 M60 30 v44"/><text class="name" x="60" y="125" text-anchor="middle">Server</text><text class="type" x="60" y="144" text-anchor="middle">&lt;&lt;control&gt;&gt;</text></g>
<line class="life" x1="135" y1="310" x2="135" y2="600"/><line class="life" x1="400" y1="290" x2="400" y2="600"/><line class="life" x1="680" y1="290" x2="680" y2="600"/><rect class="act" x="393" y="345" width="14" height="170" rx="4"/><rect class="act" x="673" y="405" width="14" height="85" rx="4"/>
<circle class="step" cx="120" cy="360" r="13"/><text class="stepText" x="120" y="364" text-anchor="middle">1</text><line class="msg" x1="135" y1="360" x2="393" y2="360"/><text class="label" x="265" y="346" text-anchor="middle">Click logout</text>
<circle class="step" cx="385" cy="430" r="13"/><text class="stepText" x="385" y="434" text-anchor="middle">2</text><line class="msg" x1="407" y1="430" x2="673" y2="430"/><text class="label" x="540" y="416" text-anchor="middle">POST /api/logout</text>
<circle class="step" cx="665" cy="485" r="13"/><text class="stepText" x="665" y="489" text-anchor="middle">3</text><path class="msg" d="M687 485 C800 485 800 525 687 525" fill="none"/><text class="label" x="810" y="505" text-anchor="middle">Clear cookie</text><text class="note" x="810" y="525" text-anchor="middle">res.clearCookie()</text>
<line class="return" x1="407" y1="560" x2="673" y2="560"/><text class="label" x="540" y="546" text-anchor="middle">200 OK</text><line class="return" x1="135" y1="600" x2="393" y2="600"/><text class="label" x="265" y="586" text-anchor="middle">Show login page</text>
</svg>
